<?xml version="1.0" encoding="UTF-8" standalone="no"?>
<svg
   xmlns:dc="http://purl.org/dc/elements/1.1/"
   xmlns:cc="http://creativecommons.org/ns#"
   xmlns:rdf="http://www.w3.org/1999/02/22-rdf-syntax-ns#"
   xmlns:svg="http://www.w3.org/2000/svg"
   xmlns="http://www.w3.org/2000/svg"
   id="svg8"
   version="1.1"
   viewBox="0 0 4.2333333 4.2333333"
   height="16"
   width="16">
  <defs
     id="defs2" />
  <metadata
     id="metadata5">
    <rdf:RDF>
      <cc:Work
         rdf:about="">
        <dc:format>image/svg+xml</dc:format>
        <dc:type
           rdf:resource="http://purl.org/dc/dcmitype/StillImage" />
        <dc:title></dc:title>
      </cc:Work>
    </rdf:RDF>
  </metadata>
  <g
     transform="translate(0,-292.76667)"
     id="layer1">
    <path
       id="path3844"
       d="m 3.0414703,293.506 c -0.534919,0.003 -1.063327,0.14676 -1.576539,0.28718 -0.420824,0.12793 -0.86778297,0.23111 -1.22379699,0.502 -0.208804,0.15472 -0.284627,0.43581 -0.21719,0.68115 0.07541,0.28355 0.229448,0.54168 0.421567,0.76195 0.19555202,0.21125 0.40537402,0.48129 0.69799099,0.51359 0.492902,0.0544 0.974041,-0.15564 1.448163,-0.28762 0.329499,-0.0917 0.671807,-0.1741 0.964946,-0.3489 0.263033,-0.15684 0.38857,-0.46942 0.520339,-0.73935 0.103987,-0.24701 0.231034,-0.53854 0.101578,-0.80055 -0.131794,-0.34012 -0.491519,-0.5222 -0.839278,-0.55551 -0.09945,-0.0101 -0.19872,-0.0144 -0.29778,-0.0139 z m 0.0057,0.20165 c 0.357383,2e-5 0.694042,0.10639 0.870923,0.41185 0.317703,0.54864 -0.516834,0.61155 -1.54236,0.92474 -1.083177,0.33081 -1.88135597,0.59074 -2.07913499,-0.072 -0.168218,-0.56365 0.48221102,-0.74937 1.44716199,-1.01518 0.468493,-0.12904 0.922972,-0.24949 1.30341,-0.24946 z"
       style="fill:#fa96c8;fill-opacity:1;stroke:none;stroke-width:0.01486368px;stroke-linecap:butt;stroke-linejoin:miter;stroke-opacity:1" />
  </g>
</svg>
